<svg xmlns="http://www.w3.org/2000/svg" width="786" height="864" viewBox="0 0 786 864">
  <title>Smooth vector logo</title>
  <path d="M 228.00 677.00
      C 222.73 684.68 219.20 692.74 216.63 701.66
      C 208.49 729.90 218.53 760.40 241.00 779.00
      C 254.82 790.44 275.36 797.09 293.08 798.14
      C 309.47 799.10 326.45 800.98 342.86 799.70
      C 345.81 799.47 356.04 799.71 357.51 796.31
      C 358.58 793.83 356.14 790.07 355.04 787.98
      C 351.38 780.99 347.32 774.20 343.34 767.39
      C 324.95 735.85 297.51 709.99 266.99 690.17
      C 259.39 685.24 251.81 680.63 243.67 676.65
      C 237.63 673.69 232.74 670.09 228.00 677.00 Z
    M 606.00 634.00
      C 600.00 629.14 593.22 625.11 586.72 620.97
      C 584.18 619.35 580.31 616.19 577.00 617.00
      C 576.05 617.23 577.58 618.88 577.87 619.81
      C 578.35 621.38 578.82 622.95 579.29 624.51
      C 580.93 630.01 582.56 635.50 583.62 641.14
      C 586.46 656.26 588.55 670.93 588.25 686.34
      C 588.13 692.15 588.25 700.20 584.34 704.92
      C 580.63 709.38 574.63 711.83 569.64 714.47
      C 561.36 718.86 553.02 723.17 544.91 727.87
      C 525.62 739.05 508.51 753.85 491.93 768.61
      C 485.42 774.40 479.63 780.68 473.96 787.30
      C 471.38 790.30 467.74 793.93 467.00 798.00
      C 466.77 799.25 469.54 798.13 470.82 798.19
      C 473.95 798.34 477.08 798.49 480.22 798.64
      C 488.52 799.04 496.83 799.44 505.14 799.77
      C 521.91 800.45 538.35 799.02 554.93 796.65
      C 576.71 793.55 598.17 788.24 616.09 774.71
      C 623.39 769.20 630.10 762.60 635.25 755.04
      C 640.96 746.67 646.38 735.33 647.88 725.20
      C 648.52 720.91 647.90 716.21 647.76 711.91
      C 646.79 680.82 630.02 653.44 606.00 634.00 Z
    M 288.00 553.00
      C 267.73 574.80 252.15 602.51 245.50 631.64
      C 243.69 639.53 238.34 652.37 242.43 660.10
      C 244.06 663.19 247.94 665.46 250.65 667.48
      C 256.68 671.99 262.90 676.25 269.11 680.52
      C 287.15 692.91 303.37 705.64 319.02 721.00
      C 331.18 732.93 342.97 745.77 352.42 759.98
      C 359.87 771.18 366.06 784.95 375.00 795.00
      C 380.71 801.42 393.30 802.93 399.45 796.76
      C 403.73 792.47 403.08 786.50 403.16 780.92
      C 403.31 770.07 403.89 758.99 402.62 748.18
      C 396.92 699.39 373.05 654.82 344.15 615.95
      C 331.45 598.87 317.28 583.06 303.30 567.05
      C 299.73 562.96 296.16 558.88 292.58 554.80
      C 291.64 553.73 289.68 551.19 288.00 553.00 Z
    M 514.00 531.00
      C 512.16 529.49 508.10 533.47 506.82 534.48
      C 500.40 539.52 493.89 544.56 487.91 550.13
      C 461.86 574.42 442.14 602.58 427.63 634.93
      C 423.67 643.75 420.47 652.24 418.17 661.66
      C 417.64 663.84 417.13 666.03 416.63 668.22
      C 416.41 669.14 415.05 671.00 416.00 671.00
      C 422.41 670.99 429.53 661.29 434.02 657.75
      C 447.18 647.39 461.66 639.39 476.70 632.19
      C 480.35 630.45 484.00 628.72 487.66 627.01
      C 489.12 626.32 491.26 624.76 492.98 624.94
      C 500.90 625.78 491.00 633.13 489.00 635.19
      C 479.64 644.82 470.87 654.58 462.93 665.44
      C 442.17 693.83 424.13 727.90 416.13 762.35
      C 414.25 770.45 412.10 778.75 411.00 787.00
      C 410.57 790.19 410.43 794.56 413.00 797.00
      C 416.26 800.09 420.65 800.22 424.82 800.38
      C 433.05 800.69 439.80 799.52 447.22 795.85
      C 457.53 790.74 465.09 779.73 473.13 771.77
      C 485.97 759.06 500.01 746.99 514.36 736.01
      C 526.07 727.06 538.10 718.83 550.68 711.17
      C 557.19 707.20 566.55 703.38 570.00 696.00
      C 572.27 691.14 572.04 685.39 571.96 680.16
      C 571.84 672.21 571.73 664.23 571.19 656.29
      C 568.86 622.09 554.13 586.35 535.24 558.07
      C 529.22 549.05 522.45 537.93 514.00 531.00 Z
    M 259.00 454.00
      C 255.90 461.79 255.81 471.77 256.17 480.06
      C 256.82 495.07 258.83 508.20 263.74 522.43
      C 265.65 527.94 267.98 533.50 271.53 538.17
      C 272.66 539.66 274.06 542.00 276.08 542.35
      C 282.27 543.40 291.54 537.61 296.97 535.54
      C 312.79 529.50 328.62 523.47 344.44 517.43
      C 358.18 512.19 371.92 506.95 385.66 501.71
      C 388.77 500.52 391.87 499.34 394.98 498.15
      C 395.68 497.89 397.96 497.49 398.27 496.63
      C 399.01 494.60 396.45 494.61 395.17 494.29
      C 391.24 493.32 387.30 492.34 383.37 491.35
      C 366.74 487.19 350.00 483.22 333.65 478.04
      C 314.23 471.90 294.28 466.01 275.54 457.97
      C 271.80 456.36 266.92 452.98 262.75 452.83
      C 261.77 452.79 259.48 452.78 259.00 454.00 Z
    M 552.00 452.00
      C 547.31 451.76 541.41 454.41 536.99 455.73
      C 523.23 459.84 509.78 465.28 496.28 470.15
      C 453.71 485.51 411.72 501.82 369.97 519.28
      C 355.68 525.26 341.39 531.27 327.11 537.30
      C 325.50 537.98 314.70 540.92 315.72 543.65
      C 316.00 544.40 318.01 544.57 318.62 544.73
      C 321.82 545.62 325.03 546.50 328.23 547.38
      C 340.37 550.70 352.51 554.02 364.79 556.81
      C 383.58 561.08 404.70 568.13 424.25 565.89
      C 435.04 564.65 444.75 559.06 454.33 554.33
      C 468.17 547.49 480.46 539.07 492.97 530.06
      C 503.07 522.78 513.01 515.73 521.74 506.81
      C 532.75 495.57 543.55 482.43 549.00 467.45
      C 550.37 463.66 551.75 459.76 552.50 455.79
      C 552.62 455.15 553.40 452.07 552.00 452.00 Z
    M 402 435 C 401.41 435.51 390.6 447.15 390 448 C 389.4 448.85 389.42 451.13 390 452 C 390.58 452.87 401.43 465.47 402 466 C 402.57 466.53 404.43 466.53 405 466 C 405.57 465.47 416.55 452.64 417 452 C 417.45 451.36 417.45 449.64 417 449 C 416.55 448.36 405.57 435.53 405 435 C 404.43 434.47 402.59 434.49 402 435 Z
    M 104.00 433.00
      C 102.97 433.08 103.77 435.58 104.00 436.00
      C 104.84 437.52 106.75 438.91 107.93 440.16
      C 112.18 444.65 115.16 449.39 118.16 454.78
      C 127.11 470.83 130.82 488.84 125.39 506.81
      C 121.46 519.82 112.07 529.76 103.48 539.79
      C 97.04 547.29 91.15 555.56 86.00 564.00
      C 59.31 607.77 55.46 662.31 80.41 707.95
      C 101.63 746.75 138.65 770.57 180.70 781.42
      C 193.18 784.64 204.57 785.01 217.41 784.49
      C 220.33 784.37 223.26 784.25 226.19 784.12
      C 226.21 784.12 229.00 784.01 229.00 784.00
      C 228.91 780.86 225.36 777.23 223.36 775.00
      C 218.97 770.13 214.13 765.41 210.96 759.61
      C 200.93 741.21 196.99 720.23 199.19 699.36
      C 201.87 673.93 213.30 646.86 224.82 624.26
      C 228.73 616.59 232.79 608.98 236.79 601.35
      C 238.02 599.00 240.63 594.54 240.00 592.00
      C 239.97 591.87 235.05 592.49 234.80 592.52
      C 229.70 593.09 224.94 593.89 220.09 595.60
      C 201.08 602.32 183.12 612.63 169.76 628.09
      C 165.23 633.33 161.56 639.47 157.64 645.17
      C 156.56 646.75 153.85 651.88 152.28 647.66
      C 151.40 645.28 153.25 642.08 154.00 639.87
      C 156.33 632.91 158.67 626.14 162.24 619.71
      C 172.48 601.30 187.51 584.30 204.41 571.67
      C 210.13 567.40 216.04 563.70 222.32 560.32
      C 226.09 558.29 231.32 556.57 233.85 552.91
      C 245.06 536.74 241.33 511.64 233.90 494.83
      C 219.27 461.79 182.37 439.17 147.52 433.34
      C 133.85 431.05 117.79 431.94 104.00 433.00 Z
    M 529.00 362.00
      C 522.97 360.10 513.86 361.67 507.70 362.78
      C 486.31 366.66 471.12 376.97 458.10 394.06
      C 453.51 400.08 450.68 407.87 448.67 415.13
      C 448.17 416.92 446.55 421.31 448.00 423.00
      C 449.12 424.30 451.86 423.68 453.26 423.48
      C 458.03 422.79 462.78 421.73 467.48 420.72
      C 488.57 416.22 508.53 405.78 520.17 386.97
      C 523.74 381.20 526.12 374.87 528.47 368.52
      C 528.89 367.36 530.81 362.57 529.00 362.00 Z
    M 278.00 362.00
      C 275.96 362.35 278.60 368.69 279.01 369.79
      C 281.83 377.25 284.78 384.37 289.42 390.91
      C 301.35 407.77 321.07 417.21 340.89 421.16
      C 345.05 421.98 349.24 422.66 353.40 423.50
      C 354.78 423.78 357.19 424.52 358.51 423.65
      C 360.29 422.49 357.98 416.43 357.61 414.98
      C 355.62 407.18 352.88 399.70 348.33 392.98
      C 335.53 374.04 314.63 363.43 292.06 362.33
      C 287.62 362.11 282.41 361.24 278.00 362.00 Z
    M 213.00 65.00
      C 209.53 69.26 207.55 75.68 205.29 80.62
      C 200.25 91.65 195.52 102.73 191.58 114.20
      C 179.42 149.65 171.14 186.20 172.01 223.89
      C 172.34 238.42 173.24 252.60 177.28 266.65
      C 180.87 279.16 186.31 293.25 193.34 304.22
      C 196.50 309.16 200.13 313.81 203.71 318.45
      C 205.11 320.24 207.80 322.58 208.33 324.89
      C 209.26 328.93 203.51 332.39 201.06 334.76
      C 194.24 341.37 187.41 347.97 180.59 354.58
      C 178.98 356.13 174.59 358.90 174.63 361.48
      C 174.67 364.25 178.45 367.47 179.99 369.45
      C 184.41 375.10 188.81 380.78 193.46 386.24
      C 210.76 406.55 234.74 422.85 257.98 435.55
      C 265.71 439.77 275.32 446.22 284.00 448.00
      C 284.65 448.13 284.19 446.22 284.00 446.00
      C 282.34 444.11 280.26 442.46 278.44 440.71
      C 273.42 435.89 268.46 430.99 263.69 425.91
      C 251.29 412.71 241.15 398.36 232.82 382.30
      C 230.82 378.46 228.85 374.60 226.89 370.74
      C 226.17 369.32 224.49 367.18 224.84 365.42
      C 225.08 364.24 227.05 362.96 227.81 362.18
      C 230.44 359.51 234.09 356.29 235.13 352.56
      C 241.25 330.56 242.89 307.83 251.07 286.36
      C 254.91 276.30 259.82 266.60 264.33 256.83
      C 264.79 255.83 269.37 247.60 266.65 246.76
      C 264.02 245.95 258.91 251.45 257.18 252.78
      C 247.42 260.27 238.17 270.03 231.24 280.19
      C 229.35 282.95 225.29 293.04 220.71 291.50
      C 218.96 290.92 218.13 285.92 217.62 284.49
      C 214.83 276.54 211.87 268.48 210.49 260.15
      C 205.75 231.45 204.36 202.18 208.74 173.31
      C 209.73 166.81 210.61 160.08 212.32 153.71
      C 212.77 152.02 213.41 148.08 215.00 147.00
      C 218.82 144.42 226.26 154.02 228.25 155.95
      C 229.49 157.15 230.74 158.36 231.99 159.57
      C 246.45 173.59 261.62 187.11 274.00 203.06
      C 277.86 208.02 281.84 212.96 284.44 218.73
      C 294.28 240.48 294.53 265.17 304.49 287.12
      C 319.11 319.30 345.38 341.20 371.12 364.20
      C 379.61 371.79 388.10 380.04 395.11 389.03
      C 396.79 391.18 400.33 398.41 403.50 398.41
      C 406.78 398.41 411.05 390.97 412.90 388.83
      C 421.27 379.17 429.81 370.08 439.26 361.48
      C 451.32 350.51 464.86 340.24 475.79 328.11
      C 488.46 314.05 497.52 298.03 505.20 280.83
      C 512.49 264.50 512.82 246.67 518.35 229.89
      C 523.23 215.06 532.36 202.65 543.25 191.66
      C 554.71 180.09 566.26 168.61 577.81 157.13
      C 581.09 153.86 584.25 150.15 587.96 147.34
      C 588.77 146.72 590.23 145.45 591.39 145.59
      C 593.00 145.78 593.91 152.81 594.19 153.94
      C 596.31 162.41 598.53 171.03 599.27 179.75
      C 601.70 208.35 602.63 238.01 595.01 265.99
      C 593.28 272.31 591.24 278.56 589.16 284.77
      C 588.67 286.23 588.16 289.90 587.00 291.00
      C 583.32 294.50 579.63 285.80 578.37 283.83
      C 571.16 272.58 561.49 262.23 551.09 253.84
      C 548.34 251.62 545.56 249.46 542.75 247.32
      C 541.98 246.73 540.18 245.03 539.00 246.00
      C 538.76 246.20 541.63 252.19 541.81 252.60
      C 544.85 259.77 547.90 266.94 550.91 274.12
      C 559.12 293.67 564.15 313.46 568.73 334.12
      C 569.94 339.61 569.50 345.72 571.00 351.00
      C 572.15 355.05 575.27 358.46 578.20 361.32
      C 579.16 362.26 581.88 363.99 582.16 365.42
      C 582.50 367.15 580.97 369.40 580.33 370.85
      C 578.39 375.22 576.35 379.47 573.92 383.59
      C 564.84 399.02 555.40 414.93 542.52 427.54
      C 536.91 433.03 531.17 438.40 525.44 443.77
      C 525.27 443.93 520.04 448.06 522.00 449.00
      C 522.83 449.40 526.90 447.42 527.70 447.15
      C 534.66 444.80 540.90 441.52 547.36 438.07
      C 552.53 435.30 557.69 432.49 562.75 429.52
      C 571.11 424.62 578.64 418.65 586.12 412.52
      C 599.16 401.83 610.39 390.50 621.17 377.53
      C 624.36 373.70 632.06 366.84 632.30 361.44
      C 632.43 358.61 626.95 355.10 625.19 353.40
      C 618.37 346.82 611.55 340.24 604.75 333.64
      C 603.30 332.23 598.77 329.27 598.69 326.96
      C 598.59 324.19 600.90 321.76 602.44 319.72
      C 605.63 315.50 608.82 311.27 611.86 306.94
      C 620.19 295.11 625.87 280.62 629.67 266.69
      C 633.53 252.52 634.49 238.48 634.84 223.88
      C 635.68 188.70 629.32 154.14 618.33 120.77
      C 613.45 105.94 607.99 91.85 601.04 77.86
      C 599.94 75.65 596.98 66.29 594.28 65.56
      C 590.93 64.66 585.98 68.69 583.37 70.15
      C 573.19 75.84 563.49 82.36 553.85 88.93
      C 522.33 110.39 492.57 137.01 468.90 166.95
      C 463.45 173.84 458.67 181.17 453.97 188.58
      C 451.68 192.19 448.13 196.62 447.64 201.00
      C 447.31 203.94 451.72 206.51 453.59 208.17
      C 458.92 212.91 464.30 217.59 469.67 222.28
      C 472.82 225.04 476.87 227.11 475.00 232.00
      C 474.69 232.82 473.42 231.23 472.63 230.84
      C 471.08 230.09 469.52 229.33 467.97 228.57
      C 463.49 226.40 459.01 224.22 454.52 222.06
      C 439.73 214.95 424.51 207.20 408.00 205.00
      C 389.08 202.48 369.63 214.36 353.28 222.03
      C 347.80 224.60 342.32 227.18 336.83 229.75
      C 336.03 230.13 332.92 232.23 332.00 232.00
      C 329.67 231.41 331.15 228.84 332.15 227.92
      C 335.84 224.49 339.56 221.09 343.26 217.67
      C 347.14 214.10 351.01 210.53 354.87 206.94
      C 356.09 205.79 359.11 203.92 359.36 202.05
      C 359.93 197.76 355.09 192.03 353.04 188.73
      C 327.62 147.65 290.66 115.63 251.67 88.02
      C 242.29 81.37 233.01 74.68 223.00 69.00
      C 221.22 67.99 215.01 62.54 213.00 65.00 Z
    M 402 277 C 402.71 276.19 405.35 277.15 406 278 C 406.65 278.85 423.2 304.35 424 306 C 424.8 307.65 423.92 311.41 423 313 C 422.08 314.59 405.49 338.39 405 339 C 404.51 339.61 402.47 339.62 402 339 C 401.53 338.38 383.9 311.95 383 310 C 382.1 308.05 383.93 303.86 385 302 C 386.07 300.14 401.29 277.81 402 277 Z"
    fill="#000000" fill-rule="evenodd" clip-rule="evenodd" shape-rendering="geometricPrecision"/>
</svg>
